<svg xmlns="http://www.w3.org/2000/svg" width="925" height="331" viewBox="0 0 925 331" fill="none"><path d="M0.300004 203.9C0.300004 196.7 1.4 187.4 3.6 176C6 164.4 9 152 12.6 138.8C16.4 125.4 20.7 111.8 25.5 98C30.3 84 35.2 70.9 40.2 58.7C45.2 46.5 50.1 35.8 54.9 26.6C59.7 17.4 64 10.8 67.8 6.79999C69.8 6.99998 72.4 7.79999 75.6 9.19999C79 10.4 82.4 11.9 85.8 13.7C89.2 15.5 92.3 17.5 95.1 19.7C97.9 21.7 99.7 23.6 100.5 25.4C94.7 30.6 88.9 38.5 83.1 49.1C77.5 59.5 72 71.4 66.6 84.8C61.4 98.2 56.5 112.4 51.9 127.4C47.3 142.2 43.3 156.6 39.9 170.6C36.5 184.6 33.8 197.6 31.8 209.6C30 221.6 29.1 231.3 29.1 238.7C29.1 242.1 29.4 244.2 30 245C25.6 244.8 22.4 244 20.4 242.6C18.4 241.4 16.8 240 15.6 238.4C14.6 237 13.6 235.5 12.6 233.9C11.8 232.5 10.5 231.4 8.7 230.6C7.3 230 6.1 228.6 5.1 226.4C4.1 224.2 3.2 221.8 2.4 219.2C1.8 216.4 1.3 213.6 0.9 210.8C0.500003 208 0.300004 205.7 0.300004 203.9ZM113.348 75.5C118.548 77.1 123.448 80.7 128.048 86.3C132.648 91.7 136.048 97.7 138.248 104.3C136.048 109.7 132.648 116.2 128.048 123.8C123.448 131.4 118.848 139.2 114.248 147.2C109.648 155 105.448 162.5 101.648 169.7C98.0484 176.7 95.9484 182.5 95.3484 187.1C98.5484 183.7 102.048 179.8 105.848 175.4C109.848 170.8 113.648 166.3 117.248 161.9C121.048 157.3 124.548 153.2 127.748 149.6C130.948 145.8 133.448 143 135.248 141.2C139.048 137.2 143.548 132.6 148.748 127.4C153.948 122 159.348 117 164.948 112.4C170.748 107.6 176.548 103.6 182.348 100.4C188.148 97 193.448 95.3 198.248 95.3C203.448 95.3 207.748 97.1 211.148 100.7C214.748 104.1 217.548 107.7 219.548 111.5C219.548 111.9 218.748 112.5 217.148 113.3C215.748 113.9 213.648 115.8 210.848 119C208.048 122.6 204.848 127.6 201.248 134C197.848 140.2 194.448 147 191.048 154.4C187.848 161.6 185.148 169 182.948 176.6C180.748 184.2 179.648 191.1 179.648 197.3C179.648 202.3 180.248 205.5 181.448 206.9C182.848 208.3 184.748 209 187.148 209C189.348 209 191.648 208.5 194.048 207.5C196.448 206.5 198.348 206 199.748 206C200.548 206.4 201.148 207.3 201.548 208.7C202.148 209.9 202.448 211 202.448 212C200.848 213.4 198.948 214.8 196.748 216.2C194.548 217.6 192.248 218.9 189.848 220.1C187.448 221.3 185.048 222.3 182.648 223.1C180.448 223.9 178.448 224.3 176.648 224.3C170.848 224.3 166.048 223.4 162.248 221.6C158.648 220 155.748 217.8 153.548 215C151.548 212.2 150.148 208.9 149.348 205.1C148.548 201.1 148.148 196.9 148.148 192.5C148.148 190.1 148.348 187.4 148.748 184.4C149.148 181.4 149.948 177.9 151.148 173.9C152.348 169.7 154.048 164.8 156.248 159.2C158.448 153.4 161.248 146.5 164.648 138.5C164.248 138.5 161.548 139.9 156.548 142.7C151.548 145.5 146.148 149.8 140.348 155.6C130.948 164.6 122.448 173.5 114.848 182.3C107.448 191.1 99.8484 200.9 92.0484 211.7C87.6484 217.9 83.7484 223.1 80.3484 227.3C77.1484 231.7 74.3484 234.6 71.9484 236C67.7484 233.6 64.6484 230.2 62.6484 225.8C60.6484 221.6 59.1484 217.2 58.1484 212.6C58.1484 208.8 58.6484 204 59.6484 198.2C60.8484 192.4 62.3484 186 64.1484 179C66.1484 171.8 68.5484 164.3 71.3484 156.5C74.1484 148.7 77.2484 140.9 80.6484 133.1C88.2484 115.5 95.1484 101.7 101.348 91.7C107.748 81.7 111.748 76.3 113.348 75.5ZM315.26 101.6C315.06 105.4 314.36 109.4 313.16 113.6C312.16 117.6 310.86 121.3 309.26 124.7C307.66 127.9 305.96 130.6 304.16 132.8C302.36 135 300.66 136.1 299.06 136.1C296.86 135.9 295.56 134.4 295.16 131.6C295.16 131 295.36 130.1 295.76 128.9C296.36 127.5 296.96 126 297.56 124.4C298.16 122.8 298.66 121.2 299.06 119.6C299.66 118 299.96 116.6 299.96 115.4C299.96 112.6 299.26 110.3 297.86 108.5C296.66 106.5 294.96 105.5 292.76 105.5C284.76 105.5 278.66 110.5 274.46 120.5C270.26 130.5 268.16 145.2 268.16 164.6C268.16 166.6 268.26 167.8 268.46 168.2C272.66 168 276.36 167.9 279.56 167.9C282.96 167.7 286.26 167.6 289.46 167.6C289.66 168 289.76 168.8 289.76 170C289.76 171.8 289.36 173.1 288.56 173.9C283.96 174.9 280.26 175.8 277.46 176.6C274.86 177.2 272.86 177.8 271.46 178.4C270.06 179 269.16 179.7 268.76 180.5C268.56 181.1 268.46 182 268.46 183.2C268.46 184.8 268.46 186.4 268.46 188C268.66 189.6 268.76 191.6 268.76 194C268.76 210.8 264.16 224.3 254.96 234.5C245.96 244.7 233.36 250.6 217.16 252.2C214.36 252 211.46 251.2 208.46 249.8C205.46 248.4 202.56 246.6 199.76 244.4C197.16 242.2 194.86 239.7 192.86 236.9C190.86 234.3 189.46 231.6 188.66 228.8C188.66 221.2 190.26 214 193.46 207.2C196.66 200.2 200.96 194.1 206.36 188.9C211.96 183.5 218.46 179.2 225.86 176C233.46 172.6 241.66 170.6 250.46 170C250.46 165 249.96 160.1 248.96 155.3C247.96 150.5 246.86 145.9 245.66 141.5C244.66 136.9 243.66 132.5 242.66 128.3C241.66 123.9 241.16 119.6 241.16 115.4C241.16 110 242.26 104.7 244.46 99.5C246.66 94.1 249.56 89.2 253.16 84.8C256.76 80.2 260.96 76.3 265.76 73.1C270.56 69.9 275.56 67.7 280.76 66.5C282.96 67.1 285.86 68.9 289.46 71.9C293.26 74.7 296.96 77.9 300.56 81.5C304.16 85.1 307.36 88.8 310.16 92.6C312.96 96.2 314.66 99.2 315.26 101.6ZM216.26 238.4C221.06 236.4 225.56 233.5 229.76 229.7C234.16 225.9 237.96 221.6 241.16 216.8C244.36 212 246.86 206.9 248.66 201.5C250.66 196.1 251.66 190.8 251.66 185.6C247.66 186.2 243.26 188.1 238.46 191.3C233.66 194.3 229.16 198 224.96 202.4C220.76 206.6 217.26 211 214.46 215.6C211.66 220.2 210.26 224.2 210.26 227.6C210.26 232 212.26 235.6 216.26 238.4ZM278.571 320.3C275.771 319.5 274.171 316.5 273.771 311.3C272.971 308.7 272.371 305.6 271.971 302C271.771 298.4 271.671 294.3 271.671 289.7C271.671 285.5 272.371 279.7 273.771 272.3C275.171 265.1 277.071 256.9 279.471 247.7C282.071 238.5 285.171 228.6 288.771 218C292.371 207.2 296.371 196.3 300.771 185.3C306.171 171.5 310.871 159.6 314.871 149.6C318.871 139.4 322.171 130.6 324.771 123.2C327.571 115.8 329.771 109.7 331.371 104.9C333.171 100.1 334.571 96 335.571 92.6C336.371 90.2 337.571 87.3 339.171 83.9C340.771 80.5 342.571 77.1 344.571 73.7C346.771 70.1 348.971 66.8 351.171 63.8C353.371 60.6 355.371 58.2 357.171 56.6C364.171 57.6 370.771 59.4 376.971 62C383.171 64.6 386.971 67.1 388.371 69.5C385.571 72.1 382.371 76.2 378.771 81.8C375.171 87.2 371.671 93.2 368.271 99.8C364.871 106.2 361.771 112.8 358.971 119.6C356.171 126.4 354.071 132.4 352.671 137.6C354.671 134.2 357.271 130.5 360.471 126.5C363.671 122.5 368.571 117 375.171 110C382.571 102.4 389.471 96.6 395.871 92.6C402.471 88.4 408.171 86.3 412.971 86.3C420.571 86.3 426.771 88.4 431.571 92.6C436.571 96.8 439.071 102.2 439.071 108.8C439.071 123.2 436.671 137.5 431.871 151.7C427.071 165.7 420.171 178.4 411.171 189.8C407.771 194.2 403.771 198.4 399.171 202.4C394.571 206.4 389.771 210 384.771 213.2C379.771 216.2 374.871 218.6 370.071 220.4C365.271 222.2 360.971 223.1 357.171 223.1C353.571 223.1 350.371 222.4 347.571 221C344.971 219.4 343.171 217.5 342.171 215.3C349.971 210.7 357.571 204.3 364.971 196.1C372.371 187.9 379.171 178.5 385.371 167.9C391.771 157.1 397.271 145.5 401.871 133.1C406.671 120.7 410.271 108.1 412.671 95.3C405.071 99.3 398.171 103.7 391.971 108.5C385.971 113.1 379.971 119.2 373.971 126.8C366.771 135.6 361.071 142.7 356.871 148.1C352.671 153.5 349.171 158.1 346.371 161.9C343.771 165.7 341.571 169.3 339.771 172.7C338.171 175.9 336.371 179.9 334.371 184.7C331.571 191.1 328.271 199.6 324.471 210.2C320.871 220.6 317.071 232.3 313.071 245.3C309.271 258.3 305.371 272.1 301.371 286.7C297.571 301.5 293.871 316.2 290.271 330.8C288.071 330.4 286.171 328.8 284.571 326C282.971 324.2 281.771 322.9 280.971 322.1C280.371 321.3 279.571 320.7 278.571 320.3ZM435.185 200.9C435.185 199.1 435.285 196.9 435.485 194.3C435.885 191.5 436.485 187.9 437.285 183.5C438.085 178.9 439.085 173.4 440.285 167C441.685 160.6 443.385 152.9 445.385 143.9C445.785 141.9 446.685 138.7 448.085 134.3C449.485 129.9 451.285 125.3 453.485 120.5C455.885 115.5 458.685 110.7 461.885 106.1C465.285 101.5 469.285 98.1 473.885 95.9C477.285 96.7 481.785 98.8 487.385 102.2C492.985 105.4 497.785 109.9 501.785 115.7C497.185 120.9 493.285 126.1 490.085 131.3C487.085 136.5 484.285 141.9 481.685 147.5C479.285 153.1 476.985 158.9 474.785 164.9C472.785 170.9 470.485 177.2 467.885 183.8C465.685 189.4 463.685 195.2 461.885 201.2C460.085 207 459.085 212.1 458.885 216.5C458.885 220.1 458.785 222.6 458.585 224C458.585 225.6 458.085 226.4 457.085 226.4C456.285 226.4 454.685 225.9 452.285 224.9C449.885 223.9 447.385 222.4 444.785 220.4C442.385 218.2 440.185 215.5 438.185 212.3C436.185 209.1 435.185 205.3 435.185 200.9ZM492.485 70.7C492.485 69.5 492.785 67.7 493.385 65.3C492.385 64.3 491.485 62.8 490.685 60.8C490.085 58.8 489.785 57 489.785 55.4C489.785 53.6 489.985 51.2 490.385 48.2C490.985 45 491.685 41.6 492.485 38C493.285 34.4 494.285 30.7 495.485 26.9C496.685 22.9 497.885 19.3 499.085 16.1C501.485 16.1 504.385 16.8 507.785 18.2C511.385 19.4 514.985 21.1 518.585 23.3C522.185 25.3 525.485 27.6 528.485 30.2C531.485 32.6 533.785 34.9 535.385 37.1C533.185 39.3 530.285 42.4 526.685 46.4C523.085 50.2 519.585 54.3 516.185 58.7C512.785 62.9 509.685 66.9 506.885 70.7C504.085 74.5 502.285 77.2 501.485 78.8C499.085 78.4 496.985 77.4 495.185 75.8C493.385 74 492.485 72.3 492.485 70.7ZM483.584 215C484.584 209.2 486.284 201.6 488.684 192.2C491.284 182.6 494.284 172.5 497.684 161.9C501.084 151.1 504.684 140.3 508.484 129.5C512.284 118.7 515.984 109 519.584 100.4C522.184 94.2 524.484 89.4 526.484 86C528.484 82.4 530.684 79.4 533.084 77C535.884 77.4 538.784 78.1 541.784 79.1C544.784 80.1 547.684 81.3 550.484 82.7C553.284 84.1 555.784 85.6 557.984 87.2C560.184 88.6 561.884 90 563.084 91.4C557.684 97.8 552.884 105.1 548.684 113.3C544.684 121.5 540.584 132 536.384 144.8C547.184 135.2 556.684 126 564.884 117.2C573.284 108.4 581.084 98.6 588.284 87.8C589.484 86.8 591.584 86.3 594.584 86.3C597.384 86.3 600.084 86.8 602.684 87.8C605.284 88.6 607.084 89.8 608.084 91.4C604.484 101 602.684 110.5 602.684 119.9C602.684 128.7 603.984 135.3 606.584 139.7C606.384 140.9 604.984 143.2 602.384 146.6C599.984 150 597.284 153.2 594.284 156.2C588.884 153.4 584.084 149.6 579.884 144.8C575.684 139.8 572.584 134.4 570.584 128.6C561.184 135.2 553.184 141.7 546.584 148.1C539.984 154.3 534.284 161.3 529.484 169.1C524.884 176.7 520.884 185.5 517.484 195.5C514.284 205.5 511.184 217.4 508.184 231.2C506.384 231 504.184 230.3 501.584 229.1C499.184 228.1 496.684 226.8 494.084 225.2C491.684 223.6 489.484 221.9 487.484 220.1C485.484 218.3 484.184 216.6 483.584 215Z" fill="black"></path><path d="M611.48 243.8C601.88 241 595.18 238.2 591.38 235.4C587.78 232.6 585.98 229.1 585.98 224.9C585.98 221.7 586.88 217.2 588.68 211.4C590.48 205.6 593.08 198.8 596.48 191C600.08 183 604.28 174.2 609.08 164.6C614.08 155 619.68 144.7 625.88 133.7C620.68 133.5 615.98 133.4 611.78 133.4C607.78 133.2 604.48 133.1 601.88 133.1C603.08 130.1 606.48 127.5 612.08 125.3C617.68 123.1 625.08 121.2 634.28 119.6C642.08 106.6 650.38 94.2 659.18 82.4C668.18 70.6 677.18 59.8 686.18 50C695.18 40 704.18 31.3 713.18 23.9C722.18 16.3 730.78 10.3 738.98 5.9C739.18 4.49999 739.28 3.29999 739.28 2.29999C739.48 1.29999 739.58 0.599988 739.58 0.199982C742.38 0.199982 746.08 0.899985 750.68 2.29999C755.48 3.69998 760.08 5.39999 764.48 7.4C769.08 9.39999 773.08 11.5 776.48 13.7C780.08 15.7 782.08 17.4 782.48 18.8C775.88 30.4 769.38 47.8 762.98 71C756.58 94 751.28 121.6 747.08 153.8C746.08 161.8 745.18 170.9 744.38 181.1C743.78 191.3 743.48 202.7 743.48 215.3C743.48 219.7 743.48 224.2 743.48 228.8C743.48 233.4 743.68 238.2 744.08 243.2C743.68 243.4 743.28 243.5 742.88 243.5C742.48 243.5 741.68 243.5 740.48 243.5C737.68 243.5 734.38 243 730.58 242C726.98 241.2 723.38 240.1 719.78 238.7C716.38 237.5 713.38 236.1 710.78 234.5C708.38 232.9 706.88 231.5 706.28 230.3C706.08 227.7 705.98 225.1 705.98 222.5C705.98 220.1 705.98 217.5 705.98 214.7C705.98 202.3 706.38 189.7 707.18 176.9C708.18 164.1 709.78 150.9 711.98 137.3C709.18 137.1 705.48 136.9 700.88 136.7C696.28 136.3 691.08 136 685.28 135.8C679.68 135.6 673.58 135.4 666.98 135.2C660.58 134.8 654.28 134.5 648.08 134.3C643.28 143.3 638.78 152.3 634.58 161.3C630.38 170.1 626.78 179 623.78 188C620.38 197.6 617.58 207.2 615.38 216.8C613.38 226.4 612.08 235.4 611.48 243.8ZM727.28 63.5C728.08 60.7 728.98 56.9 729.98 52.1C731.18 47.1 732.28 41.9 733.28 36.5C728.28 38.3 722.68 41.6 716.48 46.4C710.48 51.2 704.18 57.2 697.58 64.4C691.18 71.4 684.58 79.4 677.78 88.4C671.18 97.2 664.78 106.6 658.58 116.6C675.38 115.2 694.48 114.3 715.88 113.9C717.48 105.5 719.18 97.2 720.98 89C722.98 80.6 725.08 72.1 727.28 63.5ZM841.46 209.3C837.46 208.7 833.26 207.1 828.86 204.5C824.66 201.9 820.56 198.8 816.56 195.2C818.16 189.4 819.76 183.7 821.36 178.1C822.96 172.3 824.56 166.6 826.16 161C822.76 161.4 819.36 161.7 815.96 161.9C812.56 162.1 809.16 162.2 805.76 162.2C798.56 162.2 792.76 160.5 788.36 157.1C784.16 153.5 782.06 148.6 782.06 142.4C782.06 141.4 782.26 139.9 782.66 137.9C783.26 135.7 783.76 134.1 784.16 133.1C787.96 133.7 791.56 134.1 794.96 134.3C798.56 134.5 803.16 134.6 808.76 134.6C813.36 134.6 817.86 134.6 822.26 134.6C826.86 134.6 831.26 134.4 835.46 134C840.06 121.4 844.66 110.2 849.26 100.4C854.06 90.4 858.76 82.5 863.36 76.7C865.76 77.1 868.86 78.1 872.66 79.7C876.46 81.3 880.16 83.1 883.76 85.1C887.56 86.9 890.96 88.8 893.96 90.8C896.96 92.8 898.86 94.4 899.66 95.6C895.06 100.6 890.76 106.1 886.76 112.1C882.76 117.9 878.76 124.3 874.76 131.3C881.96 130.7 888.16 130.1 893.36 129.5C898.76 128.9 902.86 128.6 905.66 128.6C910.06 128.6 913.96 130.9 917.36 135.5C920.76 140.1 923.26 146.7 924.86 155.3C919.06 154.7 914.26 154.3 910.46 154.1C906.86 153.9 903.66 153.8 900.86 153.8C893.66 153.8 886.76 154.1 880.16 154.7C873.76 155.1 867.66 155.7 861.86 156.5C858.06 164.9 854.46 173.5 851.06 182.3C847.66 191.1 844.46 200.1 841.46 209.3Z" fill="#F711DA"></path></svg>